<svg version="1.1" xmlns="http://www.w3.org/2000/svg" xmlns:xlink="http://www.w3.org/1999/xlink" width="768.13711" height="493.58922" viewBox="0,0,768.13711,493.58922"><g transform="translate(64.06852,43.5892)"><g data-paper-data="{&quot;isPaintingLayer&quot;:true}" fill-rule="nonzero" stroke="#ffffff" stroke-linejoin="miter" stroke-miterlimit="10" stroke-dasharray="" stroke-dashoffset="0" style="mix-blend-mode: normal"><path d="M-64.06852,450.00002v-493.58921h768.13711v493.58922z" fill="#000000" stroke-width="0" stroke-linecap="butt"/><path d="M324.34495,206.7289l-31.76042,27.41447l42.93017,20.77055l6.23354,-49.403l-9.2765,0.5829l-7.31265,0.38539l16.39804,-52.75905l30.17876,5.36644l-2.57401,24.29685l-26.32812,21.31817" fill="none" stroke-width="3.5" stroke-linecap="round"/><path d="M370.16285,183.75873l37.6071,25.1139l-5.62284,5.59094l-12.25107,9.83333l-6.39153,-0.13033" fill="none" stroke-width="3.5" stroke-linecap="round"/><path d="M413.53904,191.28328l1.09586,8.97419l-6.86496,8.61514" fill="none" stroke-width="3.5" stroke-linecap="round"/><path d="M340.67627,152.99482l1.99081,-16.54545l12.43945,-24.70293l33.95708,-10.62331" fill="none" stroke-width="3.5" stroke-linecap="round"/><path d="M342.6395,136.65627l6.0044,-27.8306l31.72226,-17.86916" fill="none" stroke-width="3.5" stroke-linecap="round"/><path d="M273.23534,198.02091l-19.06643,-8.52708l-28.00569,-70.75814l76.08508,22.20295l7.6622,21.04301" fill="none" stroke-width="3.5" stroke-linecap="round"/><path d="M154.73974,138.98051l-11.72229,-64.16947l82.94213,43.5118" fill="none" stroke-width="3.5" stroke-linecap="round"/><path d="M244.83389,62.44513l-28.75099,2.70671" fill="none" stroke-width="3.5" stroke-linecap="round"/><path d="M187.23285,215.75748l-4.41746,-11.75655l24.64642,-11.35212l-19.79904,22.78814l13.96976,9.31697l3.43299,18.51057l21.65356,3.92265" fill="none" stroke-width="3.5" stroke-linecap="round"/><path d="M201.2026,225.07444l-58.12519,35.97822l-10.608,-3.46221l-18.68991,9.92116" fill="none" stroke-width="3.5" stroke-linecap="round"/><path d="M142.21759,261.69373l4.09694,11.32664l2.11906,9.12236l0.35362,26.49202" fill="none" stroke-width="3.5" stroke-linecap="round"/><path d="M148.48828,281.7675l44.15297,30.96031" fill="none" stroke-width="3.5" stroke-linecap="round"/><path d="M146.47098,274.57595l22.08981,-17.47269l34.68331,-14.48746l-7.57037,21.2662" fill="none" stroke-width="3.5" stroke-linecap="round"/><path d="M446.69439,88.53728l-0.40729,-0.05384l21.78163,57.77183l1.62526,28.69698l-0.52053,11.54049l-1.97803,9.58559l-7.61912,-7.49958l-5.74711,-8.38835l-45.15949,-68.73006" fill="none" stroke-width="3.5" stroke-linecap="round"/><path d="M469.72933,184.88971l56.49118,-1.86504" fill="none" stroke-width="3.5" stroke-linecap="round"/><path d="M502.80839,265.11931l-26.64157,-41.25065l-9.53386,-26.97451" fill="none" stroke-width="3.5" stroke-linecap="round"/></g></g></svg>