<svg version="1.1" xmlns="http://www.w3.org/2000/svg" xmlns:xlink="http://www.w3.org/1999/xlink" width="61.22191" height="48.76099" viewBox="0,0,61.22191,48.76099"><g transform="translate(-289.38905,-155.61952)"><g data-paper-data="{&quot;isPaintingLayer&quot;:true}" fill-rule="nonzero" stroke="#fce0a8" stroke-linecap="butt" stroke-linejoin="miter" stroke-miterlimit="10" stroke-dasharray="" stroke-dashoffset="0" style="mix-blend-mode: normal"><path d="M291.13906,202.63051v-45.26099h57.72191v45.26099z" fill-opacity="0.74902" fill="#000000" stroke-width="3.5"/><path d="M304.001,195.99902v-31.99801h31.99801v31.99801z" fill="#000000" stroke-width="2.5"/><path d="M309.68329,186.52338c1.05394,-1.05394 2.76272,-1.05394 3.81666,0c1.05394,1.05394 1.05394,2.76272 0,3.81666c-1.05394,1.05394 -2.76272,1.05394 -3.81666,0c-1.05394,-1.05394 -1.05394,-2.76272 0,-3.81666z" fill="#fce0a8" stroke-width="1.5"/><path d="M318.10817,178.09851c1.05394,-1.05394 2.76272,-1.05394 3.81667,0c1.05394,1.05394 1.05394,2.76272 0,3.81667c-1.05394,1.05394 -2.76272,1.05394 -3.81667,0c-1.05394,-1.05394 -1.05394,-2.76272 0,-3.81667z" fill="#fce0a8" stroke-width="1.5"/><path d="M326.51257,169.93797c1.05394,-1.05394 2.76272,-1.05394 3.81667,0c1.05394,1.05394 1.05394,2.76272 0,3.81667c-1.05394,1.05394 -2.76272,1.05394 -3.81667,0c-1.05394,-1.05394 -1.05394,-2.76272 0,-3.81667z" fill="#fce0a8" stroke-width="1.5"/></g></g></svg>